<?xml version="1.0" standalone="no"?>
<!DOCTYPE svg PUBLIC "-//W3C//DTD SVG 20010904//EN"
 "http://www.w3.org/TR/2001/REC-SVG-20010904/DTD/svg10.dtd">
<svg version="1.0" xmlns="http://www.w3.org/2000/svg"
 width="1023.000000pt" height="1023.000000pt" viewBox="0 0 1023.000000 1023.000000"
 preserveAspectRatio="xMidYMid meet">
<metadata>
Created by potrace 1.14, written by Peter Selinger 2001-2017
</metadata>
<g transform="translate(0.000000,1023.000000) scale(0.100000,-0.100000)"
fill="#000000" stroke="none">
<path d="M0 5120 l0 -3880 1623 0 1622 0 300 316 300 316 5 928 5 927 312
-248 313 -249 344 347 345 348 1 -1342 0 -1343 1678 0 1677 0 288 301 287 300
0 1939 0 1939 161 213 c89 117 227 301 307 408 112 150 188 238 327 380 228
233 273 295 320 439 24 73 16 297 -15 421 -78 314 -300 477 -547 401 -109 -33
-209 -105 -386 -279 l-157 -156 0 385 -1 384 -305 343 -305 342 -1667 -2
-1666 -3 -321 -369 c-176 -203 -325 -371 -330 -372 -6 -2 -161 165 -345 371
l-335 374 -1917 1 -1918 0 0 -3880z m8910 2648 l0 -470 -187 -297 c-102 -163
-190 -300 -195 -305 -4 -6 -8 437 -8 982 l0 993 195 -217 195 -216 0 -470z
m927 57 c64 -19 138 -84 178 -157 29 -51 30 -57 29 -183 0 -114 -4 -141 -28
-215 -57 -173 -148 -313 -342 -524 -187 -204 -271 -307 -347 -424 -39 -61
-126 -190 -191 -285 -173 -250 -221 -326 -301 -477 -40 -74 -136 -240 -213
-369 -78 -129 -187 -323 -241 -430 -125 -248 -279 -580 -298 -645 -8 -27 -42
-111 -75 -185 -106 -240 -120 -295 -149 -581 -19 -197 -63 -324 -124 -364 -33
-22 -179 -49 -218 -41 -49 11 -111 50 -154 99 -109 123 -184 355 -237 728 -39
273 -84 387 -321 818 -209 381 -294 572 -329 744 -18 85 -21 239 -5 306 15 64
110 259 148 302 40 46 123 88 173 88 88 0 224 -74 258 -140 31 -60 86 -253
161 -560 39 -157 84 -341 100 -410 43 -174 95 -351 121 -412 l22 -50 61 4 c33
3 79 15 101 26 61 31 130 114 176 211 112 237 139 290 171 331 28 34 49 86 92
220 31 96 79 245 107 330 27 85 60 175 72 200 55 109 356 677 419 790 410 737
751 1143 1050 1250 64 24 71 24 134 5z m-2326 -486 c119 -34 166 -114 134
-226 -13 -45 -29 -69 -79 -119 -52 -52 -72 -65 -122 -79 -503 -138 -783 -278
-1010 -504 -102 -100 -163 -190 -240 -345 -107 -219 -117 -326 -59 -636 94
-496 98 -527 92 -740 -4 -107 -13 -305 -23 -440 -12 -181 -15 -329 -11 -565 5
-324 15 -438 57 -656 38 -197 -9 -533 -97 -701 -40 -77 -76 -112 -133 -129
-33 -10 -44 -9 -82 8 -23 11 -60 27 -80 36 -63 28 -88 96 -108 292 -6 61 -24
162 -40 225 -68 268 -76 388 -41 630 56 392 76 666 67 955 -3 121 -11 382 -17
580 l-11 360 -49 237 c-27 130 -52 257 -55 281 -10 71 -12 72 -97 48 -242 -66
-414 -204 -773 -618 -210 -241 -271 -299 -368 -348 -57 -29 -79 -35 -133 -35
-81 0 -126 21 -161 73 -25 37 -27 49 -27 136 1 191 41 262 221 394 247 180
350 263 465 377 106 105 134 126 335 252 317 198 293 176 370 331 80 159 125
227 193 290 89 83 147 101 384 116 87 6 186 18 220 26 98 25 246 103 456 240
219 143 345 213 443 244 127 42 258 45 379 10z m1389 -3702 l0 -1703 -187
-213 -188 -213 -3 1597 -2 1597 187 319 c104 175 189 319 191 319 1 0 2 -766
2 -1703z m-5387 353 l107 -83 0 -967 0 -966 -186 -202 c-102 -111 -187 -202
-190 -202 -2 0 -4 592 -4 1316 l0 1316 83 -64 c45 -35 130 -102 190 -148z"/>
</g>
</svg>
